<svg xmlns="http://www.w3.org/2000/svg" id="canvas" viewBox="726.870 368.960 211.650 164.627"><path d="M 773.43,386.84 C 771.97 388.11, 771.91 389.79, 771.17 393.83 C 770.44 397.86, 770.60 400.66, 769.74 407.00 C 768.87 413.34, 768.28 417.65, 766.86 425.54 C 765.45 433.42, 764.54 438.09, 762.65 446.41 C 760.77 454.74, 759.57 459.20, 757.42 467.15 C 755.27 475.10, 754.06 479.10, 751.89 486.16 C 749.72 493.21, 748.61 496.66, 746.57 502.44 C 744.53 508.21, 743.55 511.01, 741.69 515.04 C 739.83 519.07, 738.06 520.37, 737.27 522.59 C 736.48 524.80, 737.15 525.64, 737.73 526.12 C 738.32 526.60, 739.76 526.36, 740.21 524.98 C 740.65 523.61, 740.26 522.86, 739.96 519.25 C 739.66 515.65, 738.79 512.95, 738.70 506.96 C 738.61 500.97, 738.87 496.91, 739.51 489.30 C 740.16 481.69, 740.74 477.25, 741.93 468.92 C 743.11 460.59, 743.93 455.95, 745.44 447.63 C 746.94 439.31, 747.82 434.97, 749.45 427.33 C 751.08 419.69, 751.92 415.92, 753.60 409.43 C 755.28 402.93, 756.14 399.79, 757.86 394.83 C 759.58 389.87, 760.82 387.67, 762.21 384.61 C 763.61 381.56, 764.32 380.61, 764.85 379.55 C 765.38 378.50, 764.33 378.53, 764.87 379.35 C 765.42 380.16, 765.74 380.81, 767.59 383.63 C 769.44 386.46, 771.29 388.50, 774.13 393.47 C 776.96 398.45, 778.62 401.91, 781.76 408.51 C 784.89 415.12, 786.60 419.17, 789.81 426.50 C 793.02 433.84, 794.69 437.88, 797.82 445.19 C 800.95 452.49, 802.55 456.24, 805.47 463.02 C 808.39 469.81, 809.92 473.16, 812.42 479.10 C 814.93 485.05, 816.16 487.87, 818.00 492.76 C 819.84 497.65, 820.49 499.93, 821.62 503.54 C 822.75 507.16, 822.65 509.06, 823.65 510.86 C 824.65 512.65, 825.63 512.63, 826.63 512.53 C 827.64 512.42, 827.92 511.38, 828.66 510.32 C 829.40 509.26, 830.57 507.87, 830.34 507.24 C 830.12 506.61, 829.34 506.07, 827.52 507.16 C 825.70 508.25, 822.40 510.85, 821.23 512.69 C 820.06 514.52, 820.60 515.72, 821.67 516.33 C 822.74 516.94, 824.69 516.34, 826.58 515.72 C 828.47 515.11, 829.87 514.79, 831.10 513.24 C 832.33 511.70, 833.11 510.55, 832.74 507.99 C 832.37 505.44, 831.04 504.01, 829.26 500.45 C 827.49 496.89, 826.24 494.90, 823.87 490.19 C 821.50 485.47, 820.18 482.71, 817.40 476.87 C 814.63 471.04, 813.03 467.74, 810.01 461.02 C 806.98 454.31, 805.37 450.59, 802.28 443.29 C 799.18 435.99, 797.54 431.94, 794.53 424.51 C 791.51 417.08, 789.93 413.01, 787.20 406.14 C 784.47 399.27, 783.23 395.73, 780.86 390.15 C 778.50 384.58, 777.92 381.83, 775.36 378.27 C 772.81 374.71, 771.21 373.23, 768.09 372.36 C 764.96 371.48, 762.38 372.08, 759.73 373.90 C 757.09 375.72, 756.44 377.61, 754.87 381.46 C 753.31 385.30, 753.17 387.75, 751.90 393.11 C 750.64 398.46, 749.96 401.58, 748.55 408.24 C 747.14 414.89, 746.37 418.67, 744.85 426.38 C 743.32 434.09, 742.47 438.45, 740.93 446.81 C 739.39 455.17, 738.54 459.81, 737.13 468.17 C 735.72 476.54, 735.04 480.96, 733.87 488.63 C 732.70 496.30, 732.07 500.27, 731.28 506.53 C 730.49 512.79, 729.68 515.60, 729.91 519.93 C 730.14 524.25, 730.58 526.02, 732.44 528.14 C 734.31 530.26, 736.63 530.76, 739.25 530.54 C 741.87 530.32, 743.73 529.66, 745.55 527.04 C 747.36 524.42, 747.05 522.04, 748.32 517.45 C 749.59 512.86, 750.25 510.10, 751.90 504.11 C 753.55 498.13, 754.57 494.68, 756.56 487.52 C 758.56 480.37, 759.72 476.35, 761.87 468.35 C 764.03 460.35, 765.24 455.87, 767.32 447.52 C 769.40 439.18, 770.48 434.52, 772.28 426.64 C 774.08 418.77, 775.00 414.48, 776.32 408.14 C 777.64 401.79, 778.45 399.06, 778.89 394.93 C 779.32 390.80, 779.57 389.10, 778.48 387.49 C 777.39 385.87, 774.89 385.57, 773.43 386.84" style="stroke: black; fill: black;"/><path d="M 754.67,481.42 C 755.78 482.89, 756.80 483.78, 759.56 483.92 C 762.32 484.06, 764.02 482.95, 768.49 482.10 C 772.96 481.26, 776.00 480.74, 781.91 479.69 C 787.83 478.64, 791.55 478.18, 798.07 476.87 C 804.59 475.56, 808.14 474.80, 814.49 473.16 C 820.85 471.52, 824.05 470.63, 829.83 468.68 C 835.61 466.72, 838.44 465.69, 843.39 463.36 C 848.33 461.04, 850.62 459.86, 854.55 457.05 C 858.48 454.24, 860.27 452.70, 863.04 449.30 C 865.81 445.90, 866.88 443.89, 868.41 440.06 C 869.93 436.23, 870.16 434.01, 870.66 430.17 C 871.16 426.33, 871.56 424.10, 870.90 420.87 C 870.24 417.65, 869.38 415.86, 867.36 414.05 C 865.33 412.24, 863.39 411.60, 860.79 411.84 C 858.18 412.08, 855.86 412.94, 854.33 415.25 C 852.81 417.57, 852.81 419.50, 853.17 423.43 C 853.52 427.35, 854.71 429.82, 856.11 434.87 C 857.51 439.93, 858.42 443.02, 860.17 448.70 C 861.93 454.39, 862.93 457.60, 864.90 463.30 C 866.86 469.00, 867.98 471.98, 870.01 477.22 C 872.04 482.46, 873.27 485.14, 875.05 489.52 C 876.83 493.89, 877.44 496.01, 878.90 499.08 C 880.36 502.16, 880.95 503.37, 882.32 504.87 C 883.70 506.36, 884.68 506.25, 885.78 506.56 C 886.89 506.87, 887.20 506.67, 887.85 506.44 C 888.51 506.20, 888.63 505.88, 889.05 505.39 C 889.48 504.90, 889.71 504.99, 889.99 503.97 C 890.28 502.94, 891.00 502.16, 890.47 500.27 C 889.94 498.39, 889.05 497.36, 887.35 494.55 C 885.64 491.74, 884.16 490.20, 881.95 486.22 C 879.74 482.24, 878.45 479.66, 876.30 474.66 C 874.16 469.65, 873.04 466.74, 871.24 461.18 C 869.44 455.61, 868.51 452.41, 867.28 446.82 C 866.05 441.23, 865.53 438.08, 865.10 433.22 C 864.68 428.36, 865.34 425.81, 865.16 422.53 C 864.97 419.25, 865.14 418.12, 864.19 416.82 C 863.24 415.52, 861.64 415.68, 860.41 416.05 C 859.18 416.41, 858.46 417.20, 858.04 418.64 C 857.62 420.09, 857.93 421.05, 858.31 423.27 C 858.68 425.49, 859.68 426.97, 859.92 429.74 C 860.15 432.51, 860.19 434.20, 859.49 437.11 C 858.78 440.03, 858.27 441.50, 856.38 444.31 C 854.50 447.13, 853.25 448.56, 850.07 451.19 C 846.88 453.82, 844.90 455.11, 840.45 457.46 C 836.00 459.81, 833.31 460.95, 827.82 462.94 C 822.34 464.92, 819.20 465.84, 813.03 467.37 C 806.86 468.90, 803.38 469.61, 796.96 470.57 C 790.55 471.54, 786.88 471.75, 780.98 472.18 C 775.08 472.60, 772.02 472.58, 767.48 472.70 C 762.94 472.82, 760.96 472.02, 758.27 472.80 C 755.57 473.57, 754.73 474.83, 754.01 476.56 C 753.29 478.28, 753.56 479.94, 754.67 481.42" style="stroke: black; fill: black;"/><path d="M 902.60,411.57 C 901.35 412.82, 900.46 413.62, 900.72 416.37 C 900.98 419.11, 902.33 420.87, 903.92 425.31 C 905.51 429.74, 906.78 432.80, 908.66 438.56 C 910.54 444.32, 911.54 447.95, 913.32 454.11 C 915.11 460.27, 916.04 463.58, 917.60 469.35 C 919.17 475.12, 919.95 477.92, 921.14 482.98 C 922.33 488.04, 922.86 490.40, 923.56 494.64 C 924.26 498.89, 924.28 500.98, 924.63 504.18 C 924.98 507.38, 924.80 508.86, 925.30 510.65 C 925.81 512.43, 926.59 512.36, 927.16 513.10 C 927.73 513.85, 927.57 513.87, 928.15 514.39 C 928.73 514.91, 929.16 515.65, 930.06 515.69 C 930.96 515.74, 931.59 515.71, 932.66 514.61 C 933.74 513.51, 935.12 512.63, 935.44 510.19 C 935.75 507.75, 935.12 505.89, 934.25 502.42 C 933.38 498.95, 932.40 497.08, 931.08 492.85 C 929.75 488.62, 929.10 486.30, 927.62 481.27 C 926.14 476.23, 925.28 473.46, 923.68 467.69 C 922.08 461.92, 921.17 458.65, 919.63 452.42 C 918.09 446.19, 917.32 442.48, 916.00 436.55 C 914.68 430.63, 913.93 427.44, 913.02 422.80 C 912.11 418.16, 912.66 415.89, 911.45 413.36 C 910.24 410.83, 908.73 410.51, 906.96 410.15 C 905.19 409.79, 903.85 410.33, 902.60 411.57" style="stroke: black; fill: black;"/><path d="M 868.27,481.54 C 869.49 482.81, 870.32 483.52, 873.01 483.35 C 875.70 483.18, 877.11 481.68, 881.73 480.68 C 886.35 479.69, 889.68 479.26, 896.12 478.39 C 902.56 477.53, 910.46 478.05, 913.92 476.36 C 917.38 474.66, 917.14 471.05, 913.43 469.90 C 909.72 468.75, 901.97 470.22, 895.37 470.61 C 888.77 471.00, 885.37 471.43, 880.42 471.85 C 875.47 472.28, 873.33 471.69, 870.63 472.73 C 867.93 473.77, 867.41 475.27, 866.94 477.03 C 866.47 478.79, 867.06 480.28, 868.27 481.54" style="stroke: black; fill: black;"/></svg>