<svg xmlns="http://www.w3.org/2000/svg" id="canvas" viewBox="257.419 369.257 909.867 180.069"><path d="M 295.52,394.33 C 294.59 395.46, 294.20 396.97, 293.34 400.47 C 292.48 403.97, 292.34 406.40, 291.20 411.82 C 290.07 417.25, 289.28 420.91, 287.67 427.59 C 286.06 434.27, 285.10 438.19, 283.18 445.21 C 281.25 452.23, 280.08 455.95, 278.03 462.67 C 275.98 469.38, 274.84 472.82, 272.94 478.80 C 271.03 484.78, 270.10 487.68, 268.50 492.57 C 266.90 497.46, 266.11 499.70, 264.94 503.25 C 263.76 506.79, 262.98 508.25, 262.63 510.30 C 262.29 512.34, 262.66 513.27, 263.20 513.49 C 263.75 513.70, 264.79 513.56, 265.34 511.38 C 265.89 509.19, 265.50 507.44, 265.96 502.58 C 266.41 497.72, 266.61 494.19, 267.61 487.07 C 268.61 479.94, 269.43 475.27, 270.96 466.96 C 272.48 458.64, 273.47 453.85, 275.25 445.49 C 277.03 437.13, 278.04 432.75, 279.85 425.15 C 281.66 417.55, 282.65 413.87, 284.31 407.49 C 285.97 401.10, 286.71 398.18, 288.17 393.23 C 289.62 388.28, 290.44 386.08, 291.58 382.73 C 292.71 379.39, 293.31 378.07, 293.85 376.50 C 294.38 374.93, 293.81 374.40, 294.27 374.89 C 294.72 375.37, 294.63 376.26, 296.11 378.92 C 297.58 381.59, 299.22 383.57, 301.66 388.20 C 304.10 392.84, 305.52 396.01, 308.31 402.10 C 311.11 408.20, 312.69 411.95, 315.63 418.67 C 318.57 425.39, 320.16 429.09, 323.02 435.70 C 325.88 442.32, 327.31 445.66, 329.94 451.74 C 332.57 457.82, 333.90 460.79, 336.19 466.11 C 338.47 471.43, 339.60 473.95, 341.35 478.33 C 343.09 482.71, 343.73 484.72, 344.89 488.01 C 346.06 491.30, 346.42 492.83, 347.16 494.77 C 347.90 496.70, 348.10 496.99, 348.61 497.68 C 349.12 498.36, 349.21 498.33, 349.70 498.18 C 350.18 498.03, 350.85 497.38, 351.02 496.93 C 351.20 496.47, 351.39 495.69, 350.58 495.90 C 349.78 496.11, 347.51 497.27, 346.99 497.97 C 346.46 498.67, 347.26 499.22, 347.96 499.41 C 348.67 499.61, 349.76 499.38, 350.51 498.94 C 351.26 498.51, 351.48 498.35, 351.73 497.22 C 351.97 496.10, 352.28 495.50, 351.74 493.33 C 351.20 491.16, 350.46 489.65, 349.01 486.38 C 347.57 483.10, 346.55 481.24, 344.53 476.95 C 342.50 472.66, 341.31 470.17, 338.88 464.91 C 336.45 459.65, 335.08 456.71, 332.39 450.67 C 329.69 444.62, 328.26 441.29, 325.41 434.67 C 322.57 428.06, 320.99 424.36, 318.16 417.59 C 315.33 410.81, 313.83 407.05, 311.28 400.82 C 308.74 394.58, 307.58 391.35, 305.43 386.40 C 303.28 381.45, 302.60 378.87, 300.53 376.06 C 298.46 373.24, 297.08 372.62, 295.09 372.32 C 293.10 372.03, 292.07 372.73, 290.59 374.57 C 289.11 376.40, 288.77 377.91, 287.69 381.49 C 286.61 385.06, 286.36 387.37, 285.19 392.45 C 284.02 397.52, 283.35 400.44, 281.83 406.87 C 280.32 413.31, 279.37 416.99, 277.61 424.62 C 275.84 432.25, 274.84 436.64, 273.01 445.01 C 271.19 453.38, 270.19 458.17, 268.48 466.47 C 266.77 474.78, 265.84 479.43, 264.47 486.54 C 263.10 493.66, 262.43 497.11, 261.63 502.03 C 260.84 506.95, 260.17 508.69, 260.51 511.15 C 260.84 513.61, 262.07 514.19, 263.31 514.31 C 264.55 514.44, 265.59 513.76, 266.71 511.79 C 267.83 509.81, 267.94 508.10, 268.92 504.44 C 269.90 500.78, 270.27 498.46, 271.61 493.50 C 272.95 488.53, 273.83 485.64, 275.62 479.63 C 277.41 473.61, 278.52 470.17, 280.56 463.43 C 282.59 456.70, 283.78 452.97, 285.81 445.95 C 287.84 438.94, 288.90 435.03, 290.71 428.37 C 292.53 421.71, 293.49 418.08, 294.87 412.68 C 296.25 407.28, 296.99 404.94, 297.61 401.37 C 298.23 397.80, 298.39 396.23, 297.97 394.83 C 297.56 393.42, 296.44 393.20, 295.52 394.33" style="stroke: black; fill: black;"/><path d="M 275.18,465.30 C 275.90 465.91, 276.35 466.09, 278.35 466.18 C 280.35 466.26, 281.55 466.15, 285.16 465.73 C 288.77 465.30, 291.28 464.76, 296.40 464.06 C 301.53 463.35, 304.79 463.04, 310.78 462.18 C 316.78 461.31, 320.20 460.82, 326.36 459.72 C 332.52 458.62, 335.72 458.00, 341.58 456.68 C 347.45 455.35, 350.42 454.68, 355.67 453.11 C 360.93 451.54, 363.41 450.69, 367.85 448.85 C 372.29 447.00, 374.31 446.03, 377.87 443.89 C 381.43 441.74, 383.05 440.56, 385.64 438.11 C 388.22 435.65, 389.34 434.24, 390.80 431.60 C 392.26 428.96, 392.60 427.43, 392.93 424.89 C 393.27 422.35, 393.13 421.01, 392.47 418.90 C 391.82 416.78, 391.13 415.66, 389.65 414.33 C 388.17 413.00, 387.01 412.41, 385.06 412.23 C 383.11 412.05, 381.78 412.26, 379.90 413.42 C 378.02 414.57, 376.87 415.51, 375.65 418.01 C 374.43 420.51, 374.08 422.31, 373.80 425.90 C 373.51 429.49, 373.70 431.75, 374.23 435.96 C 374.77 440.17, 375.14 442.60, 376.46 446.95 C 377.79 451.30, 378.70 453.65, 380.85 457.69 C 383.01 461.74, 384.34 463.76, 387.23 467.18 C 390.13 470.60, 391.86 472.14, 395.35 474.79 C 398.83 477.43, 400.75 478.64, 404.65 480.40 C 408.56 482.17, 410.74 482.76, 414.86 483.59 C 418.99 484.41, 421.22 484.58, 425.28 484.52 C 429.35 484.46, 431.36 484.23, 435.17 483.30 C 438.99 482.37, 440.91 481.60, 444.36 479.88 C 447.81 478.16, 449.55 477.06, 452.43 474.69 C 455.31 472.31, 456.69 470.85, 458.78 468.01 C 460.86 465.17, 461.92 463.52, 462.85 460.50 C 463.79 457.48, 463.89 455.74, 463.44 452.91 C 463.00 450.09, 462.36 448.53, 460.62 446.39 C 458.88 444.24, 457.51 443.20, 454.76 442.17 C 452.02 441.15, 450.10 440.87, 446.91 441.25 C 443.72 441.64, 441.78 442.34, 438.80 444.10 C 435.83 445.85, 434.23 447.25, 432.04 450.03 C 429.85 452.81, 428.69 454.59, 427.86 458.00 C 427.04 461.41, 426.93 463.59, 427.93 467.08 C 428.92 470.57, 430.05 472.53, 432.84 475.45 C 435.62 478.37, 437.68 479.67, 441.86 481.69 C 446.03 483.72, 448.62 484.39, 453.72 485.57 C 458.81 486.75, 461.78 487.15, 467.33 487.59 C 472.88 488.03, 475.94 488.09, 481.46 487.78 C 486.98 487.47, 489.78 487.01, 494.94 486.03 C 500.11 485.04, 502.68 484.39, 507.27 482.85 C 511.86 481.31, 514.04 480.34, 517.90 478.33 C 521.75 476.31, 523.50 475.04, 526.55 472.79 C 529.60 470.54, 531.02 469.37, 533.15 467.07 C 535.29 464.77, 536.02 463.33, 537.22 461.28 C 538.42 459.24, 538.67 458.31, 539.14 456.86 C 539.61 455.40, 539.48 454.91, 539.57 454.02 C 539.66 453.12, 539.86 452.92, 539.59 452.40 C 539.31 451.88, 538.84 451.42, 538.19 451.42 C 537.55 451.43, 537.06 451.74, 536.37 452.42 C 535.68 453.10, 535.49 453.61, 534.73 454.80 C 533.97 456.00, 533.70 456.67, 532.56 458.40 C 531.42 460.13, 530.80 461.30, 529.03 463.46 C 527.26 465.62, 526.31 466.94, 523.70 469.21 C 521.08 471.48, 519.49 472.76, 515.96 474.80 C 512.44 476.84, 510.41 477.84, 506.07 479.41 C 501.74 480.97, 499.24 481.65, 494.28 482.64 C 489.32 483.64, 486.60 484.09, 481.27 484.38 C 475.94 484.67, 472.96 484.58, 467.64 484.07 C 462.31 483.57, 459.40 483.10, 454.63 481.85 C 449.86 480.61, 447.44 479.80, 443.79 477.87 C 440.14 475.94, 438.53 474.61, 436.38 472.18 C 434.23 469.76, 433.65 468.27, 433.04 465.72 C 432.43 463.18, 432.62 461.84, 433.34 459.46 C 434.06 457.08, 434.93 455.80, 436.65 453.82 C 438.37 451.84, 439.70 450.79, 441.93 449.58 C 444.16 448.36, 445.59 448.08, 447.79 447.73 C 450.00 447.38, 451.20 447.40, 452.94 447.82 C 454.69 448.23, 455.48 448.66, 456.50 449.82 C 457.52 450.98, 457.91 451.83, 458.06 453.61 C 458.21 455.39, 457.98 456.46, 457.24 458.71 C 456.50 460.97, 455.95 462.46, 454.34 464.89 C 452.72 467.31, 451.59 468.70, 449.16 470.84 C 446.73 472.99, 445.20 474.02, 442.18 475.61 C 439.15 477.21, 437.44 477.92, 434.05 478.81 C 430.65 479.69, 428.86 479.92, 425.19 480.02 C 421.52 480.12, 419.45 479.99, 415.69 479.29 C 411.93 478.59, 409.95 478.09, 406.38 476.52 C 402.82 474.96, 401.05 473.87, 397.85 471.47 C 394.65 469.07, 393.03 467.66, 390.37 464.52 C 387.72 461.37, 386.48 459.51, 384.56 455.76 C 382.65 452.00, 381.82 449.78, 380.78 445.73 C 379.73 441.69, 379.50 439.35, 379.34 435.52 C 379.19 431.70, 379.54 429.59, 380.00 426.61 C 380.47 423.62, 381.04 422.38, 381.66 420.60 C 382.29 418.83, 382.54 418.41, 383.12 417.73 C 383.70 417.04, 384.00 417.10, 384.58 417.16 C 385.17 417.23, 385.50 417.40, 386.06 418.04 C 386.63 418.68, 387.09 419.16, 387.40 420.37 C 387.70 421.58, 387.90 422.37, 387.60 424.10 C 387.30 425.82, 386.97 426.86, 385.89 428.99 C 384.81 431.13, 384.26 432.47, 382.21 434.77 C 380.17 437.07, 378.83 438.31, 375.68 440.47 C 372.52 442.64, 370.62 443.68, 366.43 445.60 C 362.24 447.51, 359.84 448.42, 354.73 450.04 C 349.62 451.66, 346.69 452.38, 340.91 453.70 C 335.13 455.02, 331.95 455.65, 325.84 456.65 C 319.73 457.66, 316.32 458.10, 310.35 458.73 C 304.39 459.35, 301.14 459.50, 296.00 459.76 C 290.85 460.03, 288.30 459.79, 284.64 460.05 C 280.97 460.30, 279.65 460.42, 277.67 461.02 C 275.69 461.63, 275.24 462.23, 274.75 463.09 C 274.25 463.94, 274.45 464.68, 275.18 465.30" style="stroke: black; fill: black;"/><path d="M 510.93,451.85 C 511.34 452.60, 511.71 452.50, 512.99 453.26 C 514.26 454.02, 514.94 454.63, 517.28 455.64 C 519.62 456.64, 521.41 456.81, 524.70 458.29 C 528.00 459.78, 530.11 460.88, 533.75 463.06 C 537.38 465.24, 539.39 466.72, 542.89 469.20 C 546.38 471.67, 548.11 472.96, 551.22 475.42 C 554.33 477.89, 555.85 479.21, 558.44 481.52 C 561.02 483.83, 562.07 485.15, 564.13 486.96 C 566.18 488.77, 567.21 489.50, 568.71 490.58 C 570.21 491.66, 570.72 491.96, 571.64 492.35 C 572.57 492.74, 572.87 492.55, 573.35 492.53 C 573.83 492.50, 573.81 492.39, 574.04 492.24 C 574.27 492.09, 574.37 492.04, 574.50 491.79 C 574.63 491.54, 574.75 491.50, 574.71 491.01 C 574.66 490.52, 574.79 490.20, 574.28 489.33 C 573.77 488.47, 573.42 488.04, 572.16 486.68 C 570.90 485.31, 570.09 484.30, 567.98 482.51 C 565.86 480.71, 564.38 479.83, 561.58 477.70 C 558.78 475.58, 557.18 474.30, 553.96 471.87 C 550.74 469.45, 549.01 468.16, 545.50 465.58 C 541.98 463.00, 539.99 461.47, 536.39 458.97 C 532.78 456.48, 530.75 455.14, 527.48 453.11 C 524.21 451.07, 522.72 449.82, 520.03 448.80 C 517.33 447.79, 515.85 447.89, 514.03 448.03 C 512.20 448.17, 511.51 448.75, 510.89 449.51 C 510.27 450.28, 510.51 451.10, 510.93 451.85" style="stroke: black; fill: black;"/><path d="M 663.06,402.78 C 662.22 403.52, 661.50 404.27, 661.18 406.73 C 660.86 409.18, 661.20 410.81, 661.47 415.05 C 661.74 419.28, 662.09 422.32, 662.52 427.90 C 662.95 433.49, 663.17 436.93, 663.62 442.96 C 664.06 448.99, 664.20 452.32, 664.75 458.05 C 665.31 463.77, 665.68 466.69, 666.37 471.59 C 667.07 476.50, 667.40 478.75, 668.23 482.57 C 669.07 486.40, 669.59 488.19, 670.54 490.70 C 671.49 493.22, 672.08 493.93, 672.98 495.16 C 673.87 496.40, 674.38 496.51, 675.00 496.88 C 675.62 497.26, 675.73 497.09, 676.07 497.02 C 676.40 496.96, 676.49 496.83, 676.68 496.57 C 676.86 496.31, 676.98 496.35, 677.00 495.71 C 677.03 495.07, 677.13 494.75, 676.81 493.38 C 676.49 492.01, 676.30 491.24, 675.40 488.87 C 674.51 486.49, 673.42 485.07, 672.31 481.50 C 671.21 477.94, 670.72 475.79, 669.86 471.03 C 669.01 466.28, 668.59 463.38, 668.03 457.73 C 667.46 452.07, 667.34 448.75, 667.04 442.75 C 666.74 436.74, 666.65 433.29, 666.55 427.71 C 666.44 422.14, 666.54 419.06, 666.52 414.88 C 666.51 410.70, 666.72 409.20, 666.49 406.82 C 666.26 404.45, 666.06 403.81, 665.37 403.00 C 664.69 402.20, 663.90 402.03, 663.06 402.78" style="stroke: black; fill: black;"/><path d="M 680.08,430.73 C 680.38 431.54, 680.95 431.36, 682.03 432.41 C 683.11 433.47, 683.61 434.00, 685.49 436.01 C 687.36 438.01, 689.08 439.22, 691.41 442.43 C 693.74 445.65, 695.00 447.98, 697.12 452.08 C 699.24 456.19, 700.22 458.69, 702.00 462.97 C 703.79 467.25, 704.64 469.50, 706.05 473.48 C 707.46 477.46, 707.99 479.61, 709.04 482.86 C 710.10 486.11, 710.50 487.60, 711.31 489.71 C 712.11 491.81, 712.43 492.42, 713.05 493.38 C 713.67 494.34, 714.07 494.33, 714.42 494.51 C 714.77 494.70, 714.71 494.22, 714.80 494.30 C 714.88 494.38, 714.58 494.84, 714.82 494.92 C 715.06 494.99, 715.59 495.17, 716.01 494.67 C 716.43 494.18, 716.85 493.76, 716.91 492.43 C 716.98 491.11, 716.96 490.30, 716.32 488.05 C 715.69 485.80, 714.98 484.41, 713.72 481.19 C 712.46 477.98, 711.63 475.93, 710.04 471.97 C 708.46 468.02, 707.58 465.76, 705.80 461.40 C 704.01 457.03, 703.10 454.52, 701.12 450.15 C 699.14 445.78, 698.03 443.33, 695.89 439.56 C 693.75 435.80, 692.68 433.66, 690.40 431.31 C 688.12 428.97, 686.47 428.43, 684.50 427.84 C 682.52 427.25, 681.42 427.79, 680.54 428.37 C 679.66 428.95, 679.78 429.92, 680.08 430.73" style="stroke: black; fill: black;"/><path d="M 658.94,471.90 C 659.77 472.51, 660.47 472.64, 662.61 472.63 C 664.76 472.61, 666.03 472.30, 669.67 471.81 C 673.31 471.31, 675.78 470.79, 680.80 470.14 C 685.81 469.49, 689.04 469.23, 694.73 468.56 C 700.42 467.89, 703.64 467.51, 709.24 466.79 C 714.85 466.08, 717.74 465.61, 722.76 464.98 C 727.78 464.36, 730.34 464.04, 734.35 463.66 C 738.36 463.28, 740.31 463.24, 742.78 463.08 C 745.25 462.91, 745.88 462.47, 746.70 462.84 C 747.52 463.21, 747.15 463.57, 746.89 464.93 C 746.64 466.29, 745.81 467.32, 745.41 469.65 C 745.02 471.98, 744.56 473.77, 744.91 476.58 C 745.26 479.38, 745.68 481.20, 747.15 483.68 C 748.62 486.17, 749.76 487.40, 752.25 489.00 C 754.73 490.60, 756.39 491.27, 759.58 491.68 C 762.76 492.09, 764.70 491.74, 768.19 491.06 C 771.67 490.37, 773.65 489.77, 776.99 488.25 C 780.34 486.74, 782.17 485.72, 784.91 483.49 C 787.65 481.27, 789.11 479.93, 790.70 477.12 C 792.29 474.30, 792.84 472.46, 792.86 469.43 C 792.89 466.39, 792.50 464.54, 790.83 461.93 C 789.17 459.32, 787.62 457.93, 784.55 456.37 C 781.48 454.81, 779.32 454.50, 775.48 454.13 C 771.64 453.76, 769.32 453.93, 765.36 454.54 C 761.40 455.14, 759.12 455.72, 755.67 457.14 C 752.21 458.57, 750.25 459.46, 748.08 461.65 C 745.91 463.85, 745.09 465.52, 744.82 468.12 C 744.55 470.73, 744.99 472.49, 746.74 474.69 C 748.49 476.89, 750.17 477.94, 753.58 479.11 C 757.00 480.27, 759.28 480.30, 763.82 480.51 C 768.36 480.72, 771.10 480.65, 776.29 480.15 C 781.48 479.65, 784.51 479.21, 789.78 478.00 C 795.05 476.79, 797.83 475.94, 802.64 474.12 C 807.45 472.30, 809.83 471.28, 813.84 468.91 C 817.85 466.53, 819.79 465.16, 822.69 462.25 C 825.58 459.34, 826.68 457.58, 828.31 454.36 C 829.93 451.14, 830.51 449.28, 830.81 446.14 C 831.10 443.01, 830.79 441.29, 829.77 438.67 C 828.75 436.06, 827.72 434.66, 825.71 433.05 C 823.69 431.44, 822.19 430.77, 819.69 430.64 C 817.19 430.50, 815.57 430.87, 813.19 432.37 C 810.82 433.88, 809.33 435.13, 807.81 438.18 C 806.30 441.23, 805.97 443.55, 805.63 447.64 C 805.28 451.73, 805.39 454.27, 806.09 458.64 C 806.79 463.00, 807.42 465.39, 809.13 469.46 C 810.84 473.52, 812.05 475.58, 814.63 478.98 C 817.21 482.37, 818.84 483.93, 822.04 486.42 C 825.24 488.91, 827.09 489.90, 830.65 491.43 C 834.22 492.96, 836.16 493.51, 839.87 494.08 C 843.58 494.65, 845.53 494.63, 849.20 494.27 C 852.88 493.90, 854.81 493.42, 858.25 492.26 C 861.70 491.10, 863.46 490.30, 866.43 488.46 C 869.41 486.62, 870.84 485.44, 873.12 483.05 C 875.41 480.65, 876.51 479.16, 877.85 476.49 C 879.19 473.82, 879.52 472.20, 879.82 469.71 C 880.12 467.21, 879.94 465.94, 879.33 464.02 C 878.72 462.11, 878.06 461.24, 876.76 460.13 C 875.47 459.03, 874.50 458.66, 872.84 458.50 C 871.18 458.33, 870.04 458.52, 868.46 459.32 C 866.88 460.11, 865.99 460.92, 864.95 462.48 C 863.91 464.03, 863.52 465.14, 863.26 467.07 C 863.00 469.00, 863.01 470.23, 863.66 472.14 C 864.31 474.05, 864.97 475.14, 866.51 476.63 C 868.05 478.11, 869.16 478.72, 871.34 479.55 C 873.52 480.38, 874.88 480.64, 877.41 480.77 C 879.95 480.90, 881.48 480.72, 884.01 480.21 C 886.55 479.69, 887.95 479.12, 890.09 478.19 C 892.23 477.26, 893.28 476.58, 894.72 475.55 C 896.15 474.52, 896.75 473.84, 897.25 473.03 C 897.75 472.22, 897.50 471.61, 897.23 471.50 C 896.95 471.38, 896.21 471.43, 895.87 472.44 C 895.53 473.44, 895.18 474.38, 895.54 476.52 C 895.90 478.67, 896.37 480.24, 897.67 483.16 C 898.97 486.08, 900.14 487.76, 902.04 491.12 C 903.94 494.48, 905.06 496.39, 907.19 499.99 C 909.31 503.58, 910.62 505.58, 912.68 509.12 C 914.73 512.66, 915.89 514.50, 917.45 517.69 C 919.01 520.89, 919.66 522.44, 920.48 525.08 C 921.30 527.72, 921.58 528.91, 921.56 530.90 C 921.54 532.89, 921.40 533.64, 920.39 535.03 C 919.38 536.42, 918.66 536.74, 916.51 537.84 C 914.36 538.94, 913.03 539.73, 909.65 540.53 C 906.28 541.33, 904.01 541.65, 899.64 541.84 C 895.26 542.03, 892.59 541.96, 887.79 541.48 C 883.00 540.99, 880.23 540.56, 875.67 539.42 C 871.11 538.28, 868.64 537.46, 865.00 535.79 C 861.37 534.11, 859.67 533.01, 857.49 531.06 C 855.31 529.12, 854.79 528.24, 854.11 526.07 C 853.44 523.89, 853.37 522.83, 854.11 520.20 C 854.84 517.57, 855.46 515.96, 857.79 512.91 C 860.13 509.87, 861.94 508.08, 865.79 504.97 C 869.64 501.86, 872.08 500.14, 877.05 497.35 C 882.01 494.57, 884.97 493.31, 890.60 491.06 C 896.24 488.81, 899.42 487.83, 905.22 486.11 C 911.02 484.39, 914.08 483.73, 919.60 482.47 C 925.12 481.21, 927.98 480.83, 932.84 479.82 C 937.70 478.81, 939.93 478.34, 943.89 477.44 C 947.86 476.54, 949.65 476.34, 952.66 475.33 C 955.68 474.33, 957.08 473.80, 958.99 472.42 C 960.90 471.04, 961.48 470.11, 962.21 468.42 C 962.95 466.74, 963.07 465.73, 962.67 463.99 C 962.27 462.24, 961.76 461.08, 960.23 459.69 C 958.69 458.30, 957.42 457.63, 955.00 457.05 C 952.58 456.46, 951.01 456.36, 948.11 456.75 C 945.21 457.13, 943.35 457.64, 940.50 458.97 C 937.65 460.30, 936.03 461.33, 933.86 463.42 C 931.69 465.52, 930.60 466.96, 929.64 469.45 C 928.68 471.93, 928.52 473.52, 929.04 475.84 C 929.57 478.16, 930.38 479.39, 932.26 481.04 C 934.14 482.69, 935.64 483.42, 938.44 484.09 C 941.23 484.77, 943.09 484.77, 946.24 484.42 C 949.38 484.06, 951.09 483.39, 954.18 482.31 C 957.27 481.23, 959.00 480.61, 961.68 479.01 C 964.35 477.41, 965.74 476.24, 967.56 474.32 C 969.37 472.41, 970.07 470.84, 970.76 469.43 C 971.45 468.01, 971.04 467.33, 971.01 467.25 C 970.99 467.17, 970.42 467.70, 970.62 469.03 C 970.82 470.35, 970.86 471.78, 972.01 473.87 C 973.16 475.97, 974.19 477.54, 976.37 479.49 C 978.54 481.44, 980.12 482.43, 982.89 483.61 C 985.65 484.79, 987.28 485.11, 990.18 485.40 C 993.09 485.68, 994.60 485.62, 997.41 485.03 C 1000.22 484.44, 1001.72 483.93, 1004.24 482.44 C 1006.76 480.95, 1008.07 479.93, 1010.02 477.58 C 1011.98 475.22, 1012.77 473.74, 1014.00 470.65 C 1015.23 467.56, 1015.58 465.75, 1016.17 462.15 C 1016.76 458.55, 1016.83 456.48, 1016.96 452.64 C 1017.09 448.81, 1016.94 446.66, 1016.83 442.97 C 1016.72 439.28, 1016.80 437.25, 1016.40 434.17 C 1015.99 431.10, 1015.61 429.32, 1014.82 427.61 C 1014.03 425.90, 1013.09 425.37, 1012.46 425.61 C 1011.84 425.84, 1011.29 426.80, 1011.70 428.79 C 1012.10 430.79, 1012.93 432.36, 1014.50 435.58 C 1016.07 438.79, 1017.44 440.96, 1019.55 444.86 C 1021.66 448.75, 1022.94 451.13, 1025.06 455.04 C 1027.19 458.96, 1028.32 460.95, 1030.18 464.44 C 1032.04 467.93, 1032.86 469.60, 1034.36 472.49 C 1035.86 475.38, 1036.46 477.06, 1037.68 478.90 C 1038.89 480.74, 1039.58 481.15, 1040.43 481.69 C 1041.27 482.23, 1041.62 481.80, 1041.91 481.61 C 1042.19 481.41, 1042.06 480.66, 1041.85 480.72 C 1041.64 480.78, 1040.77 481.60, 1040.84 481.90 C 1040.92 482.20, 1041.68 482.56, 1042.22 482.24 C 1042.76 481.91, 1043.49 481.49, 1043.55 480.29 C 1043.62 479.09, 1043.48 478.31, 1042.55 476.23 C 1041.63 474.16, 1040.62 472.74, 1038.93 469.94 C 1037.25 467.14, 1036.12 465.63, 1034.14 462.24 C 1032.17 458.84, 1031.05 456.88, 1029.06 452.95 C 1027.06 449.02, 1025.95 446.61, 1024.18 442.59 C 1022.40 438.57, 1021.74 436.12, 1020.19 432.84 C 1018.64 429.56, 1018.02 427.83, 1016.43 426.19 C 1014.84 424.56, 1013.55 424.27, 1012.25 424.66 C 1010.95 425.06, 1010.29 426.10, 1009.92 428.15 C 1009.55 430.19, 1010.06 431.87, 1010.38 434.89 C 1010.71 437.91, 1011.29 439.74, 1011.56 443.25 C 1011.83 446.76, 1011.89 448.86, 1011.73 452.44 C 1011.57 456.02, 1011.41 457.97, 1010.76 461.16 C 1010.11 464.34, 1009.58 465.86, 1008.49 468.35 C 1007.39 470.84, 1006.74 471.85, 1005.26 473.61 C 1003.79 475.37, 1002.93 476.07, 1001.11 477.15 C 999.29 478.23, 998.22 478.61, 996.17 479.02 C 994.13 479.43, 992.97 479.47, 990.89 479.19 C 988.80 478.91, 987.60 478.65, 985.76 477.62 C 983.92 476.59, 983.15 475.68, 981.68 474.06 C 980.21 472.44, 979.79 471.13, 978.42 469.52 C 977.04 467.90, 976.31 466.98, 974.82 465.97 C 973.32 464.96, 972.51 464.51, 970.92 464.48 C 969.33 464.46, 968.44 464.79, 966.87 465.84 C 965.29 466.88, 964.74 468.18, 963.04 469.70 C 961.34 471.22, 960.55 472.14, 958.36 473.43 C 956.18 474.72, 954.70 475.34, 952.13 476.14 C 949.55 476.94, 947.97 477.17, 945.47 477.44 C 942.96 477.71, 941.60 477.64, 939.59 477.48 C 937.57 477.32, 936.56 477.14, 935.38 476.63 C 934.20 476.12, 933.82 475.84, 933.70 474.91 C 933.58 473.99, 933.88 473.29, 934.79 472.01 C 935.70 470.72, 936.53 469.78, 938.26 468.49 C 939.99 467.20, 941.26 466.48, 943.45 465.56 C 945.63 464.64, 947.11 464.27, 949.18 463.91 C 951.24 463.56, 952.24 463.66, 953.78 463.79 C 955.32 463.92, 955.92 464.24, 956.89 464.56 C 957.85 464.89, 958.26 465.01, 958.62 465.41 C 958.97 465.81, 959.11 465.99, 958.67 466.57 C 958.22 467.15, 957.93 467.50, 956.38 468.31 C 954.84 469.11, 953.67 469.53, 950.96 470.58 C 948.26 471.62, 946.63 472.36, 942.85 473.53 C 939.07 474.70, 936.87 475.26, 932.07 476.44 C 927.28 477.61, 924.42 478.05, 918.88 479.40 C 913.33 480.75, 910.24 481.44, 904.36 483.19 C 898.47 484.95, 895.25 485.93, 889.46 488.17 C 883.68 490.40, 880.64 491.63, 875.43 494.38 C 870.22 497.12, 867.64 498.76, 863.41 501.90 C 859.18 505.05, 857.09 506.71, 854.28 510.10 C 851.47 513.50, 850.32 515.38, 849.35 518.87 C 848.38 522.37, 848.41 524.44, 849.43 527.57 C 850.45 530.69, 851.68 532.11, 854.46 534.51 C 857.23 536.92, 859.25 537.86, 863.30 539.60 C 867.36 541.35, 869.91 542.07, 874.72 543.24 C 879.53 544.42, 882.35 544.87, 887.34 545.49 C 892.34 546.10, 895.05 546.29, 899.72 546.32 C 904.38 546.35, 906.75 546.29, 910.67 545.64 C 914.59 544.99, 916.53 544.64, 919.32 543.08 C 922.12 541.52, 923.16 540.23, 924.65 537.84 C 926.14 535.45, 926.59 534.00, 926.78 531.12 C 926.96 528.25, 926.58 526.59, 925.58 523.47 C 924.58 520.34, 923.54 518.83, 921.76 515.49 C 919.98 512.16, 918.77 510.36, 916.70 506.79 C 914.62 503.21, 913.32 501.24, 911.39 497.62 C 909.46 494.00, 908.42 492.08, 907.03 488.68 C 905.63 485.29, 905.26 483.46, 904.40 480.64 C 903.54 477.81, 903.49 476.49, 902.74 474.56 C 901.99 472.63, 901.61 472.07, 900.65 471.00 C 899.70 469.94, 899.11 469.66, 897.96 469.25 C 896.82 468.85, 896.18 468.80, 894.93 468.99 C 893.68 469.19, 893.17 469.64, 891.72 470.24 C 890.26 470.83, 889.46 471.36, 887.65 471.97 C 885.85 472.59, 884.69 472.95, 882.69 473.31 C 880.68 473.67, 879.50 473.77, 877.64 473.76 C 875.77 473.75, 874.80 473.58, 873.36 473.25 C 871.93 472.92, 871.28 472.67, 870.48 472.10 C 869.67 471.54, 869.51 471.18, 869.35 470.42 C 869.19 469.65, 869.41 469.13, 869.68 468.28 C 869.94 467.43, 870.23 466.92, 870.67 466.17 C 871.12 465.41, 871.46 465.07, 871.92 464.50 C 872.39 463.92, 872.65 463.55, 873.01 463.31 C 873.38 463.07, 873.50 462.94, 873.76 463.31 C 874.02 463.68, 874.25 464.06, 874.32 465.16 C 874.39 466.25, 874.50 467.06, 874.11 468.78 C 873.72 470.49, 873.43 471.66, 872.38 473.73 C 871.33 475.80, 870.63 477.10, 868.86 479.14 C 867.08 481.17, 865.97 482.25, 863.51 483.90 C 861.04 485.54, 859.51 486.27, 856.54 487.35 C 853.57 488.42, 851.86 488.89, 848.66 489.27 C 845.46 489.65, 843.81 489.70, 840.57 489.27 C 837.33 488.84, 835.62 488.39, 832.46 487.11 C 829.30 485.82, 827.64 485.00, 824.77 482.85 C 821.90 480.69, 820.42 479.34, 818.11 476.32 C 815.80 473.31, 814.69 471.44, 813.23 467.77 C 811.78 464.11, 811.26 461.88, 810.81 457.98 C 810.37 454.08, 810.46 451.66, 810.99 448.26 C 811.52 444.86, 812.36 443.22, 813.46 440.97 C 814.57 438.73, 815.31 438.07, 816.51 437.03 C 817.71 435.99, 818.31 435.76, 819.46 435.79 C 820.60 435.82, 821.20 436.21, 822.23 437.18 C 823.26 438.14, 824.02 438.90, 824.62 440.61 C 825.23 442.31, 825.39 443.35, 825.24 445.69 C 825.09 448.04, 825.00 449.59, 823.88 452.31 C 822.75 455.04, 822.02 456.66, 819.61 459.32 C 817.21 461.99, 815.51 463.36, 811.86 465.64 C 808.20 467.92, 805.92 468.98, 801.35 470.73 C 796.77 472.49, 794.05 473.33, 788.98 474.41 C 783.91 475.49, 780.94 475.87, 775.98 476.14 C 771.03 476.42, 768.32 476.27, 764.20 475.78 C 760.08 475.30, 758.15 474.62, 755.39 473.72 C 752.62 472.81, 751.63 472.24, 750.37 471.25 C 749.10 470.26, 748.76 469.85, 749.06 468.77 C 749.35 467.69, 750.09 467.15, 751.84 465.84 C 753.58 464.52, 754.91 463.40, 757.77 462.19 C 760.64 460.97, 762.73 460.28, 766.15 459.77 C 769.57 459.26, 771.74 459.24, 774.89 459.63 C 778.04 460.01, 779.65 460.62, 781.92 461.70 C 784.19 462.78, 785.12 463.51, 786.23 465.02 C 787.34 466.53, 787.58 467.44, 787.46 469.26 C 787.34 471.08, 786.86 472.16, 785.63 474.12 C 784.40 476.08, 783.50 477.29, 781.31 479.07 C 779.12 480.85, 777.52 481.80, 774.68 483.02 C 771.85 484.24, 770.00 484.69, 767.13 485.15 C 764.25 485.61, 762.66 485.53, 760.29 485.32 C 757.92 485.11, 756.81 484.97, 755.26 484.09 C 753.71 483.21, 753.16 482.55, 752.54 480.94 C 751.92 479.33, 752.17 478.22, 752.15 476.04 C 752.13 473.87, 752.57 472.43, 752.45 470.07 C 752.33 467.70, 752.32 466.27, 751.55 464.22 C 750.77 462.17, 750.33 461.07, 748.56 459.83 C 746.79 458.60, 745.64 458.09, 742.69 458.03 C 739.74 457.97, 737.89 458.86, 733.81 459.55 C 729.72 460.23, 727.26 460.70, 722.27 461.47 C 717.27 462.24, 714.40 462.72, 708.82 463.41 C 703.24 464.10, 700.05 464.45, 694.37 464.92 C 688.68 465.40, 685.46 465.52, 680.40 465.78 C 675.34 466.04, 672.78 465.93, 669.06 466.24 C 665.33 466.56, 663.89 466.68, 661.76 467.35 C 659.64 468.02, 659.00 468.68, 658.44 469.59 C 657.88 470.50, 658.11 471.29, 658.94 471.90" style="stroke: black; fill: black;"/><path d="M 1005.94,467.32 C 1006.67 467.98, 1007.22 468.12, 1009.22 468.33 C 1011.23 468.53, 1012.53 468.52, 1015.97 468.35 C 1019.40 468.18, 1021.70 467.76, 1026.41 467.47 C 1031.13 467.19, 1034.06 467.13, 1039.54 466.91 C 1045.02 466.68, 1048.21 466.62, 1053.79 466.34 C 1059.38 466.07, 1062.32 465.87, 1067.47 465.51 C 1072.62 465.15, 1075.18 464.92, 1079.55 464.54 C 1083.92 464.15, 1086.03 464.20, 1089.31 463.59 C 1092.59 462.99, 1094.06 462.66, 1095.97 461.51 C 1097.88 460.36, 1098.53 459.43, 1098.86 457.85 C 1099.20 456.28, 1098.91 455.08, 1097.64 453.62 C 1096.37 452.17, 1095.10 451.19, 1092.51 450.56 C 1089.93 449.93, 1087.96 449.88, 1084.71 450.47 C 1081.45 451.06, 1079.42 451.87, 1076.23 453.53 C 1073.03 455.19, 1071.04 456.26, 1068.72 458.78 C 1066.40 461.31, 1065.26 463.04, 1064.62 466.16 C 1063.98 469.27, 1064.00 471.40, 1065.52 474.35 C 1067.03 477.29, 1068.68 478.62, 1072.19 480.88 C 1075.70 483.14, 1078.02 483.97, 1083.08 485.65 C 1088.13 487.32, 1091.36 488.02, 1097.46 489.24 C 1103.55 490.46, 1107.14 490.91, 1113.56 491.74 C 1119.97 492.58, 1123.51 492.87, 1129.54 493.44 C 1135.58 494.01, 1138.76 494.20, 1143.72 494.58 C 1148.68 494.96, 1150.96 495.23, 1154.34 495.34 C 1157.72 495.45, 1158.81 495.39, 1160.62 495.14 C 1162.43 494.89, 1162.68 494.44, 1163.38 494.09 C 1164.08 493.74, 1163.99 493.69, 1164.15 493.40 C 1164.31 493.11, 1164.34 492.93, 1164.18 492.62 C 1164.02 492.32, 1164.07 492.19, 1163.34 491.87 C 1162.62 491.54, 1162.35 491.21, 1160.56 491.01 C 1158.78 490.81, 1157.74 490.86, 1154.41 490.87 C 1151.07 490.89, 1148.82 491.18, 1143.90 491.07 C 1138.98 490.96, 1135.80 490.82, 1129.81 490.34 C 1123.82 489.87, 1120.30 489.58, 1113.97 488.70 C 1107.64 487.82, 1104.07 487.31, 1098.16 485.96 C 1092.25 484.61, 1089.06 483.74, 1084.39 481.95 C 1079.73 480.15, 1077.65 478.99, 1074.81 476.98 C 1071.98 474.97, 1071.25 473.81, 1070.24 471.90 C 1069.23 469.99, 1069.20 469.18, 1069.77 467.43 C 1070.33 465.68, 1071.21 464.75, 1073.05 463.13 C 1074.89 461.52, 1076.41 460.41, 1078.98 459.35 C 1081.55 458.29, 1083.35 458.16, 1085.88 457.83 C 1088.42 457.50, 1089.74 457.77, 1091.65 457.69 C 1093.55 457.60, 1094.44 457.56, 1095.41 457.41 C 1096.38 457.27, 1096.75 457.00, 1096.51 456.98 C 1096.26 456.97, 1095.83 456.98, 1094.20 457.34 C 1092.56 457.70, 1091.37 458.11, 1088.35 458.76 C 1085.32 459.41, 1083.31 459.96, 1079.08 460.60 C 1074.85 461.25, 1072.28 461.53, 1067.19 461.98 C 1062.10 462.43, 1059.18 462.63, 1053.64 462.85 C 1048.09 463.08, 1044.92 463.10, 1039.46 463.10 C 1034.00 463.10, 1031.08 463.00, 1026.34 462.85 C 1021.61 462.70, 1019.31 462.34, 1015.80 462.36 C 1012.29 462.39, 1010.84 462.43, 1008.79 462.96 C 1006.74 463.50, 1006.14 464.15, 1005.56 465.02 C 1004.99 465.89, 1005.20 466.66, 1005.94 467.32" style="stroke: black; fill: black;"/></svg>